<?xml version="1.0" encoding="UTF-8"?>
<!-- Generator: visioncortex VTracer 0.6.2 -->
<svg version="1.1" xmlns="http://www.w3.org/2000/svg" width="1280" height="720">
<path d="M0 0 C422.4 0 844.8 0 1280 0 C1280 237.6 1280 475.2 1280 720 C857.6 720 435.2 720 0 720 C0 482.4 0 244.8 0 0 Z " fill="#FAFCFC" transform="translate(0,0)"/>
<path d="M0 0 C2.83958631 2.66140132 4.86851561 5.17258565 6.7421875 8.578125 C7.24339111 9.47877686 7.74459473 10.37942871 8.26098633 11.30737305 C8.79361084 12.27843994 9.32623535 13.24950684 9.875 14.25 C11.04147544 16.34588389 12.20949225 18.44091053 13.37890625 20.53515625 C14.27826904 22.14801514 14.27826904 22.14801514 15.19580078 23.79345703 C18.00882761 28.7929556 20.90840583 33.74052007 23.8125 38.6875 C28.93298686 47.42573773 33.98663836 56.20005772 39 65 C44.69647228 74.998083 50.45329781 84.95899113 56.26464844 94.89086914 C59.9204582 101.14052773 63.53009999 107.41322205 67.109375 113.70703125 C69.20938402 117.36469159 71.35232315 120.99522166 73.5 124.625 C77.96924354 132.18738647 82.33599139 139.80689371 86.6875 147.4375 C96.6852151 164.96643724 106.7497648 182.45567606 116.9375 199.875 C122.35949017 209.1456967 127.70323953 218.45936595 133.02023315 227.79046631 C137.63484029 235.88707843 142.29084886 243.95788801 147 252 C152.05630923 260.63497557 157.04607122 269.30606319 162 278 C167.53985933 287.72124506 173.13374932 297.40894868 178.78344727 307.06689453 C186.21410379 319.77360125 193.54885755 332.53562593 200.89550781 345.29101562 C202.78398493 348.56931062 204.67301666 351.84728485 206.5625 355.125 C207.18447266 356.20394531 207.80644531 357.28289062 208.44726562 358.39453125 C212.58688491 365.56872025 216.75535736 372.72553606 220.9375 379.875 C228.07523521 392.08286961 235.08638483 404.36165155 242.08691406 416.6484375 C243.94541954 419.90437971 245.81105859 423.15610907 247.6796875 426.40625 C248.24284668 427.38698486 248.80600586 428.36771973 249.38623047 429.37817383 C250.43830775 431.20967963 251.49194407 433.04029102 252.54736328 434.86987305 C253.0061084 435.66949463 253.46485352 436.46911621 253.9375 437.29296875 C254.33839844 437.9893042 254.73929688 438.68563965 255.15234375 439.40307617 C256 441 256 441 256 442 C230.38352992 442.11671178 204.76709957 442.20492863 179.15041733 442.25906086 C167.25660066 442.28486153 155.36294903 442.32004778 143.46923828 442.37719727 C133.10477314 442.42697504 122.7404275 442.45927745 112.37584615 442.47044247 C106.88591934 442.47697073 101.39633444 442.49235287 95.90651703 442.52865028 C90.74205535 442.56252073 85.57807728 442.57307103 80.41351509 442.56553841 C78.51557604 442.56691696 76.61762126 442.57690258 74.71977806 442.59602737 C72.13255318 442.62082606 69.54716534 442.61495426 66.9598999 442.60127258 C66.20503445 442.61583679 65.45016901 442.630401 64.67242885 442.64540654 C60.88233822 442.59105384 59.33898371 442.33584979 56.60029984 439.62248516 C55.80815142 438.32435501 55.80815142 438.32435501 55 437 C54.4836499 436.1548584 53.9672998 435.3097168 53.43530273 434.43896484 C52.93973877 433.53871582 52.4441748 432.6384668 51.93359375 431.7109375 C51.37164307 430.69717041 50.80969238 429.68340332 50.23071289 428.63891602 C49.34307251 427.02327759 49.34307251 427.02327759 48.4375 425.375 C47.17553646 423.09967369 45.91250653 420.82493852 44.6484375 418.55078125 C44.02678711 417.4313916 43.40513672 416.31200195 42.76464844 415.15869141 C40.40532105 410.93553456 37.99572476 406.74341088 35.5625 402.5625 C35.12832764 401.81605225 34.69415527 401.06960449 34.24682617 400.30053711 C33.33096331 398.72658899 32.41485907 397.15278131 31.49853516 395.57910156 C28.5700839 390.53899744 25.66148797 385.48741539 22.75 380.4375 C21.46747794 378.21352435 20.18492559 375.98956617 18.90234375 373.765625 C18.25894043 372.64994141 17.61553711 371.53425781 16.95263672 370.38476562 C15.0124253 367.02153842 13.07087422 363.65908821 11.12890625 360.296875 C4.91218019 349.53173092 -1.2889285 338.75826857 -7.44873047 327.96044922 C-14.54283635 315.53338638 -21.712807 303.14985018 -28.87207031 290.76025391 C-36.28289554 277.9347262 -43.66867068 265.09546571 -51.00997925 252.2300415 C-56.42889381 242.73444767 -61.88238875 233.25921566 -67.35327148 223.79345703 C-71.94943607 215.83561246 -76.51065947 207.85822801 -81.0625 199.875 C-85.9959681 191.22304007 -90.96832396 182.59530178 -96 174 C-104.93685224 158.72947291 -113.72282367 143.3708632 -122.41015625 127.95703125 C-122.94680908 127.00489746 -123.48346191 126.05276367 -124.03637695 125.07177734 C-125.08468949 123.20972166 -126.13143575 121.34678319 -127.17651367 119.48291016 C-130.03406994 114.40549707 -132.9561881 109.37549346 -135.953125 104.37890625 C-136.60716309 103.28223633 -137.26120117 102.18556641 -137.93505859 101.05566406 C-139.20337078 98.93531936 -140.48194848 96.8210727 -141.77197266 94.71386719 C-142.623479 93.2873584 -142.623479 93.2873584 -143.4921875 91.83203125 C-144.00120605 90.99389893 -144.51022461 90.1557666 -145.03466797 89.29223633 C-146 87 -146 87 -145.95849609 84.88745117 C-144.576763 82.16657023 -142.84458766 81.4079759 -140.171875 79.96875 C-139.15536865 79.411875 -138.1388623 78.855 -137.09155273 78.28125 C-135.98884033 77.6934375 -134.88612793 77.105625 -133.75 76.5 C-131.44355441 75.24041797 -129.13757142 73.97998854 -126.83203125 72.71875 C-125.09687256 71.77708984 -125.09687256 71.77708984 -123.32666016 70.81640625 C-118.6627388 68.26983537 -114.04600934 65.64518689 -109.4375 63 C-108.59098877 62.51563477 -107.74447754 62.03126953 -106.87231445 61.53222656 C-99.36687615 57.22966493 -91.90020044 52.86125097 -84.43334961 48.4921875 C-76.05930997 43.59982025 -67.64264738 38.78435462 -59.21594238 33.98361206 C-51.01124051 29.30820265 -42.83560485 24.58606963 -34.6875 19.8125 C-23.19644531 13.08108801 -11.61333477 6.51775476 0 0 Z " fill="#000100" transform="translate(735,22)"/>
<path d="M0 0 C3.89020503 3.41493111 5.98237139 7.25027467 8.375 11.75 C12.39114349 19.14198809 16.55136354 26.43405182 20.8125 33.6875 C25.44493132 41.58685593 30.01278831 49.51725588 34.5 57.5 C39.43417436 66.27385913 44.47035865 74.98268155 49.55859375 83.66796875 C54.09145437 91.41576575 58.55667658 99.20069534 63 107 C67.95363499 115.6941016 72.94369338 124.36502888 78 133 C83.4035646 142.22800529 88.72652361 151.4999467 94.02050781 160.79101562 C98.63502804 168.88744133 103.29095255 176.95806509 108 185 C113.40219654 194.22566898 118.72388068 203.49522316 124.01647949 212.78396606 C128.71544556 221.02865707 133.45724815 229.24685694 138.25 237.4375 C144.57552067 248.24913594 150.81531744 259.10724702 157 270 C157.45874512 270.80630859 157.91749023 271.61261719 158.39013672 272.44335938 C159.67936794 274.71077216 160.96538354 276.9799702 162.25 279.25 C162.63325439 279.92417969 163.01650879 280.59835937 163.41137695 281.29296875 C166 285.88418019 166 285.88418019 166 287 C165.21755448 287.00423194 164.43510897 287.00846388 163.62895298 287.01282406 C144.61819881 287.11598605 125.60748302 287.22460181 106.59679508 287.33933926 C97.40349175 287.39469222 88.21018454 287.44817755 79.0168457 287.49731445 C71.00690527 287.54013097 62.99699365 287.58640245 54.98709768 287.63687855 C50.74324438 287.66349997 46.49939688 287.68835347 42.25551033 287.70907402 C38.26568129 287.72860863 34.27590721 287.75274267 30.28612709 287.78049088 C28.81751754 287.7898782 27.34889591 287.79754739 25.8802681 287.80341911 C23.8837422 287.81165174 21.88724685 287.82651736 19.89076233 287.84178162 C18.77078385 287.84823417 17.65080538 287.85468672 16.49688816 287.8613348 C14.05937489 287.71835512 14.05937489 287.71835512 13 289 C12.83970312 291.95529504 12.74042672 294.88982457 12.68359375 297.84765625 C12.6524221 299.17729652 12.6524221 299.17729652 12.62062073 300.53379822 C12.555026 303.376617 12.49619448 306.21953117 12.4375 309.0625 C12.3943242 310.98503606 12.35071022 312.90756234 12.30664062 314.83007812 C12.19933457 319.55328668 12.09809549 324.27659153 12 329 C6.17928378 329.02464638 0.35859766 329.0428343 -5.4621582 329.05493164 C-7.44393441 329.05997267 -9.42570689 329.06680538 -11.4074707 329.07543945 C-14.24952109 329.08751515 -17.09152247 329.09323045 -19.93359375 329.09765625 C-21.27108925 329.10539818 -21.27108925 329.10539818 -22.63560486 329.11329651 C-24.75740601 329.11349177 -26.8791078 329.0621003 -29 329 C-29.33 328.67 -29.66 328.34 -30 328 C-29.98675842 325.26417464 -29.91788229 322.54583862 -29.82421875 319.8125 C-29.35927524 298.19301501 -30.14683126 282.90175519 -43.04492188 264.81542969 C-46.32928843 260.08574498 -49.09287009 255.06406049 -51.9375 250.0625 C-53.10000639 248.07254627 -54.26538888 246.08427003 -55.43359375 244.09765625 C-59.15334883 237.74953434 -62.82900653 231.37640958 -66.5 225 C-71.28452501 216.69175361 -76.09561218 208.39993893 -80.9375 200.125 C-86.31820722 190.92820455 -91.61115543 181.68320221 -96.87942505 172.42175293 C-101.94961718 163.51510361 -107.12693293 154.67787813 -112.375 145.875 C-117.12978232 137.8969255 -121.79551281 129.89071647 -126.25732422 121.74536133 C-129.89755796 115.12179546 -133.69034006 108.58982057 -137.5 102.0625 C-138.11246582 101.01231689 -138.72493164 99.96213379 -139.35595703 98.88012695 C-142.57190143 93.37423577 -142.57190143 93.37423577 -146 88 C-145.9765625 86.03369141 -145.9765625 86.03369141 -145 84 C-142.5859375 82.23583984 -142.5859375 82.23583984 -139.375 80.4609375 C-138.80131683 80.13875748 -138.22763367 79.81657745 -137.63656616 79.4846344 C-135.76406925 78.4361942 -133.88221196 77.40587951 -132 76.375 C-130.70052524 75.65062001 -129.40186215 74.92478207 -128.10400391 74.19750977 C-125.54615672 72.76491543 -122.9855975 71.33738458 -120.42285156 69.91357422 C-116.37001554 67.64780184 -112.36344839 65.31417464 -108.375 62.9375 C-98.10150119 56.85194073 -87.74246464 50.9141708 -77.39501953 44.95556641 C-70.8480988 41.18447227 -64.30468935 37.40728924 -57.76098633 33.63061523 C-52.29578707 30.47680921 -46.82908972 27.32565671 -41.359375 24.1796875 C-27.5166071 16.21352792 -13.72849859 8.1615945 0 0 Z " fill="#000100" transform="translate(566,177)"/>
<path d="M0 0 C0.83961777 0.00718552 1.67923553 0.01437103 2.54429626 0.02177429 C3.83496254 0.02246162 3.83496254 0.02246162 5.15170288 0.02316284 C6.97162758 0.02618599 8.79154968 0.03407416 10.61143494 0.0464325 C13.40750726 0.06469157 16.20324868 0.0669422 18.99937439 0.06669617 C20.76435123 0.07161114 22.52932581 0.07743937 24.29429626 0.08427429 C25.55675926 0.08594353 25.55675926 0.08594353 26.84472656 0.08764648 C32.73684296 0.13619599 32.73684296 0.13619599 33.85289001 1.25224304 C33.95085442 4.17266956 33.98280901 7.06945286 33.97314453 9.99029541 C33.97442617 11.38202663 33.97442617 11.38202663 33.9757337 12.80187362 C33.97739134 15.93582125 33.9718625 19.0697163 33.96641541 22.20365906 C33.96613357 24.44023131 33.9662912 26.67680366 33.96685791 28.91337585 C33.96714602 35.00610557 33.96124709 41.09881579 33.95428395 47.19154096 C33.94805269 53.55104299 33.9474468 59.91054543 33.94625854 66.27005005 C33.94349884 76.95088582 33.93724331 87.63171384 33.92832947 98.31254578 C33.91915606 109.31580062 33.91207488 120.31905351 33.90782166 131.3223114 C33.90755893 132.00009667 33.90729621 132.67788195 33.90702552 133.37620617 C33.90572052 136.7763197 33.90445681 140.17643324 33.90321362 143.57654679 C33.89284015 171.80178388 33.87514696 200.02701301 33.85289001 228.25224304 C28.03217379 228.27688942 22.21148767 228.29507734 16.39073181 228.30717468 C14.4089556 228.31221572 12.42718313 228.31904842 10.44541931 228.3276825 C7.60336893 228.33975819 4.76136754 228.34547349 1.91929626 228.34989929 C0.58180077 228.35764122 0.58180077 228.35764122 -0.78271484 228.36553955 C-2.904516 228.36573481 -5.02621778 228.31434334 -7.14710999 228.25224304 C-8.14710999 227.25224304 -8.14710999 227.25224304 -8.20960999 223.68974304 C-8.18898499 222.55536804 -8.16835999 221.42099304 -8.14710999 220.25224304 C-12.12440582 220.84811949 -15.01547194 222.12479623 -18.52210999 224.06474304 C-39.14353018 234.68171185 -64.27857529 234.97417432 -86.14710999 228.25224304 C-100.04625467 223.76225806 -111.75491481 215.34538224 -122.14710999 205.25224304 C-122.78132874 204.67989929 -123.41554749 204.10755554 -124.06898499 203.51786804 C-138.45849481 190.14708457 -146.20238349 168.07641188 -147.35023499 148.84989929 C-147.68899815 123.30151071 -138.5346596 100.28403789 -120.72132874 81.72489929 C-102.22428526 63.94033453 -78.27863156 55.68037433 -52.85023499 56.03739929 C-38.08643643 56.5209167 -23.32293794 61.09595642 -10.94007874 69.11552429 C-9.36017144 70.34148404 -9.36017144 70.34148404 -8.14710999 70.25224304 C-8.15155121 69.40477509 -8.15599243 68.55730713 -8.16056824 67.68415833 C-8.20059516 59.70864352 -8.23106898 51.73316231 -8.25073433 43.75757027 C-8.26118425 39.65695547 -8.27536535 35.55642346 -8.29798889 31.45585632 C-8.31967439 27.50068724 -8.3316695 23.54559793 -8.33686447 19.59037399 C-8.34056798 18.07924518 -8.34779974 16.56812088 -8.3585701 15.05702591 C-8.37302821 12.94508072 -8.37509035 10.8334678 -8.37416077 8.72148132 C-8.37860199 7.51790985 -8.38304321 6.31433838 -8.38761902 5.07429504 C-7.91478317 -0.47380156 -4.82734403 0.01910389 0 0 Z " fill="#000100" transform="translate(481.14710998535156,463.7477569580078)"/>
<path d="M0 0 C0.83961777 0.00718552 1.67923553 0.01437103 2.54429626 0.02177429 C3.83496254 0.02246162 3.83496254 0.02246162 5.15170288 0.02316284 C6.97162758 0.02618599 8.79154968 0.03407416 10.61143494 0.0464325 C13.40750726 0.06469157 16.20324868 0.0669422 18.99937439 0.06669617 C20.76435123 0.07161114 22.52932581 0.07743937 24.29429626 0.08427429 C25.55675926 0.08594353 25.55675926 0.08594353 26.84472656 0.08764648 C32.73684296 0.13619599 32.73684296 0.13619599 33.85289001 1.25224304 C33.95085442 4.17266956 33.98280901 7.06945286 33.97314453 9.99029541 C33.97442617 11.38202663 33.97442617 11.38202663 33.9757337 12.80187362 C33.97739134 15.93582125 33.9718625 19.0697163 33.96641541 22.20365906 C33.96613357 24.44023131 33.9662912 26.67680366 33.96685791 28.91337585 C33.96714602 35.00610557 33.96124709 41.09881579 33.95428395 47.19154096 C33.94805269 53.55104299 33.9474468 59.91054543 33.94625854 66.27005005 C33.94349884 76.95088582 33.93724331 87.63171384 33.92832947 98.31254578 C33.91915606 109.31580062 33.91207488 120.31905351 33.90782166 131.3223114 C33.90755893 132.00009667 33.90729621 132.67788195 33.90702552 133.37620617 C33.90572052 136.7763197 33.90445681 140.17643324 33.90321362 143.57654679 C33.89284015 171.80178388 33.87514696 200.02701301 33.85289001 228.25224304 C28.03217379 228.27688942 22.21148767 228.29507734 16.39073181 228.30717468 C14.4089556 228.31221572 12.42718313 228.31904842 10.44541931 228.3276825 C7.60336893 228.33975819 4.76136754 228.34547349 1.91929626 228.34989929 C0.58180077 228.35764122 0.58180077 228.35764122 -0.78271484 228.36553955 C-2.904516 228.36573481 -5.02621778 228.31434334 -7.14710999 228.25224304 C-9.11533884 226.28401418 -8.8095938 222.90415595 -9.14710999 220.25224304 C-10.13968811 220.71114929 -11.13226624 221.17005554 -12.15492249 221.64286804 C-37.51875476 233.17331081 -62.79934288 235.8809902 -89.50648499 227.15458679 C-111.03632612 218.92751019 -129.35202093 201.4359493 -138.87757874 180.57646179 C-148.29732549 158.80537037 -148.9961231 135.68448395 -140.79164124 113.47489929 C-135.90116531 101.39948823 -129.24084836 91.53727364 -120.14710999 82.25224304 C-119.37109436 81.4285321 -118.59507874 80.60482117 -117.79554749 79.75614929 C-101.25080363 63.33946073 -77.72978746 55.99364045 -54.84022522 55.93315125 C-37.48781073 56.18962347 -22.36256527 62.34155279 -7.14710999 70.25224304 C-7.39011589 68.96341217 -7.39011589 68.96341217 -7.63803101 67.64854431 C-8.13335513 64.34400803 -8.28061284 61.25000333 -8.29237366 57.91142273 C-8.29875351 56.67704468 -8.30513336 55.44266663 -8.31170654 54.17088318 C-8.31337578 52.19248444 -8.31337578 52.19248444 -8.31507874 50.17411804 C-8.31829477 48.79742905 -8.3216591 47.4207404 -8.32516479 46.04405212 C-8.33113179 43.1694306 -8.33300693 40.29483906 -8.33241272 37.42021179 C-8.3323106 33.73240307 -8.34602417 30.04478475 -8.36318493 26.35702133 C-8.37427979 23.5192221 -8.3763328 20.68146952 -8.37580299 17.84365082 C-8.37698455 16.48324673 -8.38141613 15.1228415 -8.38913536 13.7624588 C-8.39889477 11.86682604 -8.39480349 9.9711371 -8.39002991 8.07548523 C-8.39145493 6.99660034 -8.39287994 5.91771545 -8.39434814 4.80613708 C-7.87697861 -0.53813085 -4.58204969 0.01813316 0 0 Z " fill="#000100" transform="translate(741.1471099853516,463.7477569580078)"/>
<path d="M0 0 C-0.02320313 -0.69867187 -0.04640625 -1.39734375 -0.0703125 -2.1171875 C-0.08835937 -3.02726563 -0.10640625 -3.93734375 -0.125 -4.875 C-0.14820313 -5.77992188 -0.17140625 -6.68484375 -0.1953125 -7.6171875 C0 -10 0 -10 2 -12 C4.85714464 -12.1876103 7.61565986 -12.25557318 10.47265625 -12.23046875 C11.31090439 -12.23001053 12.14915253 -12.22955231 13.01280212 -12.2290802 C14.78564875 -12.22605724 16.55849271 -12.21816963 18.33129883 -12.20581055 C21.05494522 -12.18755065 23.77825192 -12.18530085 26.50195312 -12.18554688 C28.22135713 -12.18063192 29.94075881 -12.1748037 31.66015625 -12.16796875 C32.47992447 -12.16685593 33.29969269 -12.1657431 34.14430237 -12.16459656 C39.88395199 -12.11604801 39.88395199 -12.11604801 41 -11 C41.09696917 -8.82307389 41.12186746 -6.64293607 41.12025452 -4.46385193 C41.12153615 -3.42738977 41.12153615 -3.42738977 41.12284368 -2.36998898 C41.12450047 -0.0375678 41.1189739 2.29478263 41.11352539 4.62719727 C41.11324354 6.29234821 41.11340122 7.95749928 41.1139679 9.62265015 C41.11425594 14.15758106 41.10835816 18.69248576 41.10139394 23.22741055 C41.09516148 27.96133369 41.09455669 32.69525736 41.09336853 37.42918396 C41.09025489 46.400021 41.08204108 55.37084592 41.07201904 64.34167761 C41.0608589 74.55190392 41.0553477 84.7621308 41.05032361 94.97236168 C41.03985849 115.98158123 41.02225843 136.99078985 41 158 C35.32169922 158.02464705 29.64342931 158.04283462 23.96508789 158.05493164 C22.03181415 158.05997256 20.09854424 158.06680519 18.1652832 158.07543945 C15.39273128 158.08751565 12.62022959 158.09323057 9.84765625 158.09765625 C8.54297142 158.10539818 8.54297142 158.10539818 7.21192932 158.11329651 C5.14094186 158.11349185 3.07005676 158.06208168 1 158 C0 157 0 157 -0.0625 153.4375 C-0.041875 152.303125 -0.02125 151.16875 0 150 C-3.37389446 150.63690865 -6.32513793 151.99806715 -9.43188477 153.42529297 C-32.60006506 164.06444081 -57.1291585 164.8810532 -81.22265625 156.9375 C-93.76239374 152.17933874 -104.44344377 144.28154742 -114 135 C-114.63421875 134.42765625 -115.2684375 133.8553125 -115.921875 133.265625 C-130.21634933 119.98314886 -138.19880017 98.28442755 -139.203125 79.125 C-139.66822751 54.58417712 -131.43161103 32.35950763 -115 14 C-114.47148437 13.37738281 -113.94296875 12.75476563 -113.3984375 12.11328125 C-85.1040207 -19.01057723 -34.31276138 -21.54078909 0 0 Z " fill="#000100" transform="translate(278,534)"/>
<path d="M0 0 C-0.02320313 -0.69867187 -0.04640625 -1.39734375 -0.0703125 -2.1171875 C-0.08835937 -3.02726563 -0.10640625 -3.93734375 -0.125 -4.875 C-0.14820313 -5.77992188 -0.17140625 -6.68484375 -0.1953125 -7.6171875 C0 -10 0 -10 2 -12 C4.9292303 -12.18768653 7.76228397 -12.25553641 10.69140625 -12.23046875 C11.98207253 -12.22978142 11.98207253 -12.22978142 13.29881287 -12.2290802 C15.11873757 -12.22605705 16.93865967 -12.21816888 18.75854492 -12.20581055 C21.55461724 -12.18755148 24.35035866 -12.18530085 27.14648438 -12.18554688 C28.91146122 -12.1806319 30.6764358 -12.17480367 32.44140625 -12.16796875 C33.70386925 -12.16629951 33.70386925 -12.16629951 34.99183655 -12.16459656 C40.88395295 -12.11604705 40.88395295 -12.11604705 42 -11 C42.09696917 -8.82307389 42.12186746 -6.64293607 42.12025452 -4.46385193 C42.12153615 -3.42738977 42.12153615 -3.42738977 42.12284368 -2.36998898 C42.12450047 -0.0375678 42.1189739 2.29478263 42.11352539 4.62719727 C42.11324354 6.29234821 42.11340122 7.95749928 42.1139679 9.62265015 C42.11425594 14.15758106 42.10835816 18.69248576 42.10139394 23.22741055 C42.09516148 27.96133369 42.09455669 32.69525736 42.09336853 37.42918396 C42.09025489 46.400021 42.08204108 55.37084592 42.07201904 64.34167761 C42.0608589 74.55190392 42.0553477 84.7621308 42.05032361 94.97236168 C42.03985849 115.98158123 42.02225843 136.99078985 42 158 C36.17928378 158.02464638 30.35859766 158.0428343 24.5378418 158.05493164 C22.55606559 158.05997267 20.57429311 158.06680538 18.5925293 158.07543945 C15.75047891 158.08751515 12.90847753 158.09323045 10.06640625 158.09765625 C8.72891075 158.10539818 8.72891075 158.10539818 7.36439514 158.11329651 C5.24259399 158.11349177 3.1208922 158.0621003 1 158 C-0.96822886 156.03177114 -0.66248381 152.65191291 -1 150 C-1.99257813 150.45890625 -2.98515625 150.9178125 -4.0078125 151.390625 C-28.8846994 162.69970154 -54.50114026 166.13990178 -80.6875 156.75 C-91.21722736 152.42713399 -100.49187839 146.53835091 -109 139 C-109.48500977 138.57090332 -109.97001953 138.14180664 -110.46972656 137.69970703 C-118.56936293 130.41517693 -124.33649429 122.84165975 -129 113 C-129.28601074 112.39784668 -129.57202148 111.79569336 -129.86669922 111.17529297 C-139.211646 90.95211799 -141.01009001 68.30622794 -133.7109375 47.078125 C-124.96682263 23.40964122 -109.19297465 5.40455758 -86.484375 -5.72265625 C-57.21524005 -18.84219141 -27.49425477 -16.03372372 0 0 Z " fill="#000100" transform="translate(927,534)"/>
<path d="M0 0 C2.98885268 2.77737346 5.01050908 5.43928991 6.9609375 9.015625 C7.50733887 10.00667236 8.05374023 10.99771973 8.61669922 12.01879883 C9.19693848 13.08509521 9.77717773 14.1513916 10.375 15.25 C11.63360283 17.53094971 12.89406605 19.81087373 14.15625 22.08984375 C14.47689423 22.66977585 14.79753845 23.24970795 15.12789917 23.84721375 C18.29019537 29.55366715 21.57034754 35.18768049 24.875 40.8125 C29.97646735 49.5081503 35.01008687 58.24006651 40 67 C44.95349757 75.69418709 49.94429433 84.36467544 55 93 C59.9546923 101.47380533 64.88876131 109.95921667 69.77929688 118.47021484 C70.50596362 119.73346215 71.23413878 120.99584304 71.96386719 122.25732422 C72.97744905 124.01030705 73.98496479 125.76679314 74.9921875 127.5234375 C75.57339355 128.53325684 76.15459961 129.54307617 76.75341797 130.58349609 C78 133 78 133 78 135 C52.51391402 135.11671234 27.02786799 135.20492891 1.54156876 135.25906086 C-10.29171421 135.28486141 -22.1248313 135.32004743 -33.95800781 135.37719727 C-44.26973524 135.4269754 -54.58134257 135.45927754 -64.89318681 135.47044247 C-70.35516871 135.47697067 -75.81680695 135.49235241 -81.27867889 135.52865028 C-86.4168764 135.56252132 -91.55458782 135.57307091 -96.69288635 135.56553841 C-98.5811502 135.56691693 -100.46942986 135.57690222 -102.35759735 135.59602737 C-104.93168806 135.62082702 -107.50393247 135.61495396 -110.07806396 135.60127258 C-111.20452572 135.62311889 -111.20452572 135.62311889 -112.35374427 135.64540654 C-116.13395302 135.59092216 -117.66580952 135.33128912 -120.3963356 132.6244688 C-122.01127053 129.98155527 -123.60919592 127.35515118 -125.1015625 124.640625 C-125.6699585 123.61477295 -126.23835449 122.5889209 -126.82397461 121.53198242 C-127.41831299 120.44892822 -128.01265137 119.36587402 -128.625 118.25 C-133.76993328 108.90740393 -133.76993328 108.90740393 -139.17578125 99.71484375 C-139.64612793 98.94043945 -140.11647461 98.16603516 -140.60107422 97.36816406 C-141.47122074 95.94833419 -142.35129723 94.53452704 -143.24267578 93.12792969 C-146.03307726 88.56224541 -146.03307726 88.56224541 -145.88134766 85.9831543 C-144.65175511 83.21640076 -143.1213952 82.51506143 -140.49609375 81.0390625 C-139.54001221 80.49233887 -138.58393066 79.94561523 -137.59887695 79.38232422 C-136.55562256 78.80240723 -135.51236816 78.22249023 -134.4375 77.625 C-132.23155562 76.37016992 -130.02583254 75.11495075 -127.8203125 73.859375 C-126.68625977 73.21935547 -125.55220703 72.57933594 -124.38378906 71.91992188 C-119.16252769 68.95743995 -113.98989534 65.91325228 -108.8125 62.875 C-100.54374855 58.0439246 -92.24386249 53.27062928 -83.921875 48.53198242 C-76.34852557 44.21360733 -68.81876301 39.8224688 -61.29296875 35.421875 C-52.80272931 30.46018776 -44.28655849 25.54442894 -35.76489258 20.63696289 C-26.95275695 15.55859133 -18.1643583 10.44046192 -9.38671875 5.30273438 C-8.44441406 4.75166016 -7.50210938 4.20058594 -6.53125 3.6328125 C-5.70173828 3.14699707 -4.87222656 2.66118164 -4.01757812 2.16064453 C-2.69953424 1.40241841 -1.3600431 0.68002155 0 0 Z " fill="#000100" transform="translate(393,329)"/>
<path d="M0 0 C11.05517703 9.18717477 18.03618094 21.01155363 20.54296875 35.17578125 C20.56480618 37.17566203 20.56787971 39.17593639 20.54296875 41.17578125 C14.74056307 41.20045457 8.93818777 41.21862849 3.13574219 41.23071289 C1.16080188 41.23574935 -0.81413468 41.24257876 -2.7890625 41.2512207 C-5.6237073 41.26331633 -8.45830291 41.26901635 -11.29296875 41.2734375 C-12.17947113 41.27859879 -13.06597351 41.28376007 -13.9793396 41.28907776 C-20.22928784 41.28965296 -20.22928784 41.28965296 -22.45703125 40.17578125 C-22.9140625 38.13671875 -22.9140625 38.13671875 -23.26953125 35.55078125 C-24.42300514 29.47986603 -26.20288723 25.53924361 -31.26953125 21.859375 C-40.58125136 17.08711844 -54.13865262 17.73427483 -64.12109375 20.01171875 C-66.68055675 20.92926209 -69.04744913 21.92298144 -71.45703125 23.17578125 C-72.18148438 23.48386719 -72.9059375 23.79195312 -73.65234375 24.109375 C-75.81863215 25.14500449 -75.81863215 25.14500449 -76.76953125 28.36328125 C-77.5406435 32.63944918 -77.88340942 35.0467918 -76.45703125 39.17578125 C-67.47499375 49.88614084 -45.24039229 50.43435094 -32.51953125 52.73828125 C-12.70182458 56.34350216 7.90397973 60.7898527 20.23046875 78.30078125 C28.31101536 90.21602132 28.89293977 102.82600345 27.07421875 116.76953125 C24.29627644 130.65924282 17.17772301 140.80221444 5.828125 149.1796875 C-15.87298259 162.96242113 -47.13895089 164.49486002 -71.74267578 159.58178711 C-89.74536775 155.54670098 -107.34966565 146.71182965 -117.81640625 131.01171875 C-122.47885774 122.95233832 -126.12978376 113.64606661 -125.45703125 104.17578125 C-123.45703125 102.17578125 -123.45703125 102.17578125 -119.46630859 101.94873047 C-117.74182956 101.94904788 -116.01733092 101.96039001 -114.29296875 101.98046875 C-112.93215683 101.98471359 -112.93215683 101.98471359 -111.54385376 101.98904419 C-108.63978002 102.00025972 -105.73601213 102.02536662 -102.83203125 102.05078125 C-100.86588986 102.06080928 -98.89974365 102.06993544 -96.93359375 102.078125 C-92.10795466 102.10020353 -87.28254485 102.1347426 -82.45703125 102.17578125 C-82.16916748 103.07744019 -82.16916748 103.07744019 -81.87548828 103.99731445 C-81.61622559 104.79484131 -81.35696289 105.59236816 -81.08984375 106.4140625 C-80.70916748 107.59415894 -80.70916748 107.59415894 -80.32080078 108.7980957 C-77.09997203 117.66402312 -71.67086404 122.11506435 -63.35546875 126.2109375 C-53.65297825 129.89651251 -39.36822961 130.06373417 -29.58203125 126.61328125 C-25.19683889 124.37403409 -21.5781181 121.70908451 -19.45703125 117.17578125 C-18.62351802 112.29377516 -18.89064544 107.95045678 -20.39453125 103.23828125 C-26.5277467 97.1050658 -35.83195506 96.09747197 -44.01953125 94.73828125 C-46.4235011 94.31302552 -48.82714146 93.8859035 -51.23046875 93.45703125 C-53.0398291 93.13798828 -53.0398291 93.13798828 -54.88574219 92.8125 C-95.2612997 85.61401395 -95.2612997 85.61401395 -107.45703125 74.17578125 C-108.08996094 73.64339844 -108.72289062 73.11101562 -109.375 72.5625 C-116.35228073 66.32906583 -120.70529744 56.47449831 -121.66186523 47.18701172 C-121.76016595 45.07442179 -121.78625832 42.97806032 -121.76953125 40.86328125 C-121.7638916 40.1141748 -121.75825195 39.36506836 -121.75244141 38.59326172 C-121.45642942 25.04411921 -115.39100524 13.31781751 -106.12890625 3.52734375 C-78.41421749 -20.86482384 -29.31083006 -21.76177685 0 0 Z " fill="#000100" transform="translate(1111.45703125,534.82421875)"/>
<path d="M0 0 C2.01373856 1.42998944 3.81536846 2.94202293 5.6328125 4.61328125 C6.30828125 5.21011719 6.98375 5.80695312 7.6796875 6.421875 C17.06768477 15.19224087 22.9363421 26.63500337 23.8359375 39.5234375 C24.06527937 54.94667832 20.06451015 66.09164874 9.5078125 77.36328125 C-0.6629664 87.14660191 -12.21540069 91.03484064 -26.09179688 90.97998047 C-38.62167193 90.6119661 -48.57804767 86.32205075 -58.3671875 78.61328125 C-59.11871094 78.02933594 -59.87023437 77.44539062 -60.64453125 76.84375 C-69.54439648 69.00298582 -74.16851519 56.66852944 -75.34375 45.0859375 C-75.43963264 30.8793268 -69.57441669 18.03050656 -59.8515625 7.8671875 C-43.08702783 -7.34214662 -19.93589323 -11.67861732 0 0 Z " fill="#FBFDFD" transform="translate(449.3671875,565.38671875)"/>
<path d="M0 0 C11.44139086 8.40292626 19.85866507 19.15548827 22.81640625 33.24609375 C24.5865575 45.76473097 23.18263355 58.06547922 16.1640625 68.80078125 C8.14431126 79.3246589 -1.86174796 87.71567977 -15.21484375 90.06640625 C-31.85359559 91.68157014 -45.58132962 88.80231917 -58.5859375 78.2109375 C-66.517033 71.25333387 -72.96096652 61.94840233 -74.75 51.3125 C-75.39384452 41.25374868 -75.29167566 32.53030882 -70.75 23.3125 C-70.399375 22.54808594 -70.04875 21.78367187 -69.6875 20.99609375 C-62.99460183 7.63353664 -51.57422477 -0.68615709 -37.75 -5.6875 C-25.01934239 -8.89690948 -11.13686149 -6.9171856 0 0 Z " fill="#FBFDFD" transform="translate(254.75,565.6875)"/>
<path d="M0 0 C9.84817086 7.10303613 17.9210626 18.61326345 20.2421875 30.6171875 C21.71831704 46.20537381 20.13764322 59.05115096 10.2421875 71.6171875 C1.6375575 81.91314526 -10.39179606 87.70479226 -23.6875 89 C-38.11615687 89.64336021 -49.38252298 85.41251445 -60.7578125 76.6171875 C-61.43714844 76.09511719 -62.11648438 75.57304688 -62.81640625 75.03515625 C-70.84420675 67.97283733 -76.18669045 55.47806923 -77.05859375 45.00390625 C-77.10948234 28.94007616 -72.31504452 16.62912274 -61.1796875 4.83984375 C-43.60691312 -11.28742823 -19.78987782 -12.70851579 0 0 Z " fill="#FBFDFD" transform="translate(712.7578125,567.3828125)"/>
<path d="M0 0 C1.18335938 0.54333984 1.18335938 0.54333984 2.390625 1.09765625 C14.20324967 7.02405808 22.43738034 18.37233123 27 30.625 C30.2209646 43.50885842 28.96797091 57.79896513 22.6796875 69.4453125 C16.01017045 80.19671977 6.56224345 88.33983914 -5.6875 91.875 C-20.02891622 94.94553399 -33.41965683 93.29957446 -45.9375 85.5625 C-47.63908716 84.39527524 -49.32859181 83.21004428 -51 82 C-52.60875 80.8553125 -52.60875 80.8553125 -54.25 79.6875 C-63.45357947 70.69309279 -68.93820149 58.92314856 -69.3125 46 C-69.15899557 33.31030017 -63.34808332 19.93652546 -54.7421875 10.6171875 C-39.88053987 -3.17815357 -18.71667505 -9.09010492 0 0 Z " fill="#FBFDFD" transform="translate(899,563)"/>
<path d="M0 0 C0.83961777 0.00718552 1.67923553 0.01437103 2.54429626 0.02177429 C3.83496254 0.02246162 3.83496254 0.02246162 5.15170288 0.02316284 C6.97162758 0.02618599 8.79154968 0.03407416 10.61143494 0.0464325 C13.40750726 0.06469157 16.20324868 0.0669422 18.99937439 0.06669617 C20.76435123 0.07161114 22.52932581 0.07743937 24.29429626 0.08427429 C25.13593826 0.08538712 25.97758026 0.08649994 26.84472656 0.08764648 C32.73684296 0.13619599 32.73684296 0.13619599 33.85289001 1.25224304 C33.94985918 3.42916915 33.97475747 5.60930697 33.97314453 7.78839111 C33.97399896 8.47936589 33.97485338 9.17034066 33.9757337 9.88225406 C33.97739048 12.21467525 33.97186392 14.54702567 33.96641541 16.87944031 C33.96613355 18.54459125 33.96629123 20.20974232 33.96685791 21.87489319 C33.96714595 26.4098241 33.96124818 30.9447288 33.95428395 35.4796536 C33.94805149 40.21357673 33.9474467 44.9475004 33.94625854 49.681427 C33.94314491 58.65226404 33.93493109 67.62308896 33.92490906 76.59392065 C33.91374892 86.80414696 33.90823772 97.01437384 33.90321362 107.22460473 C33.8927485 128.23382428 33.87514844 149.2430329 33.85289001 170.25224304 C28.03217379 170.27688942 22.21148767 170.29507734 16.39073181 170.30717468 C14.4089556 170.31221572 12.42718313 170.31904842 10.44541931 170.3276825 C7.60336893 170.33975819 4.76136754 170.34547349 1.91929626 170.34989929 C0.58180077 170.35764122 0.58180077 170.35764122 -0.78271484 170.36553955 C-2.904516 170.36573481 -5.02621778 170.31434334 -7.14710999 170.25224304 C-9.00759682 168.3917562 -8.27743366 165.28888 -8.28082275 162.80548096 C-8.28308831 162.12408442 -8.28535387 161.44268788 -8.28768808 160.74064296 C-8.29405552 158.4405377 -8.29319697 156.14049095 -8.29237366 153.84037781 C-8.29536344 152.19817528 -8.29876554 150.55597347 -8.30255127 148.91377258 C-8.31141383 144.44069593 -8.31373032 139.96763839 -8.31436706 135.4945538 C-8.31531426 131.7666977 -8.31899037 128.03884609 -8.32253915 124.3109917 C-8.33069226 115.51951524 -8.3331226 106.72804902 -8.33241272 97.93656921 C-8.33181167 88.85307998 -8.34236689 79.76965009 -8.35815638 70.68617588 C-8.37121061 62.9001988 -8.37659751 55.11424116 -8.37595731 47.32825321 C-8.3757017 42.67243329 -8.37858739 38.01666607 -8.38913536 33.36085701 C-8.39878084 28.98360673 -8.39892009 24.60645991 -8.39161873 20.22920609 C-8.39056845 18.61909904 -8.39296185 17.00898568 -8.39897919 15.39888954 C-8.40663991 13.20779895 -8.40209415 11.01707096 -8.39434814 8.82598877 C-8.39489291 7.59761575 -8.39543768 6.36924273 -8.39599895 5.10364628 C-7.91006003 -0.46352619 -4.85810426 0.01922562 0 0 Z " fill="#000100" transform="translate(544.1471099853516,521.7477569580078)"/>
</svg>
